<?xml version="1.0" standalone="no"?>
<!DOCTYPE svg PUBLIC "-//W3C//DTD SVG 20010904//EN"
 "http://www.w3.org/TR/2001/REC-SVG-20010904/DTD/svg10.dtd">
<svg version="1.0"
  xmlns="http://www.w3.org/2000/svg" width="1024.000000pt" height="1024.000000pt" viewBox="0 0 1024.000000 1024.000000" preserveAspectRatio="xMidYMid meet">

  <g transform="translate(0.000000,1024.000000) scale(0.100000,-0.100000)" fill="#FFFFFF" stroke="none">
    <path d="M5667 9466 c-145 -60 -271 -220 -491 -628 -91 -169 -94 -172 -152
-207 -33 -20 -85 -45 -115 -55 l-54 -18 -100 35 c-55 20 -164 58 -242 86 -329
116 -426 106 -475 -52 -21 -65 -23 -91 -22 -277 0 -183 3 -219 28 -335 15 -71
47 -190 71 -264 l45 -133 -35 -58 c-80 -131 -157 -342 -191 -525 -24 -122 -24
-351 -1 -466 51 -258 161 -462 344 -640 140 -137 271 -221 491 -314 62 -27
112 -54 112 -61 0 -32 -41 -37 -225 -31 -201 8 -406 32 -606 72 -149 30 -155
33 -219 85 -117 96 -215 131 -314 110 -98 -20 -156 -87 -156 -180 0 -43 5 -55
34 -88 31 -34 39 -37 87 -37 l53 0 37 -190 c48 -243 53 -258 91 -290 l31 -27
41 49 c23 26 55 61 71 76 44 42 180 105 260 122 192 40 459 -2 691 -109 l76
-36 46 36 c63 48 156 91 248 114 105 27 296 26 519 -1 106 -14 228 -22 325
-22 209 0 300 18 462 90 63 27 81 32 98 23 29 -15 26 -65 -5 -96 -35 -35 -155
-90 -247 -113 -188 -48 -355 -48 -706 -1 -341 47 -523 8 -672 -140 -156 -155
-185 -362 -69 -494 33 -38 102 -86 122 -86 3 0 6 33 9 74 10 147 124 290 171
215 8 -13 3 -28 -21 -65 -130 -204 4 -421 248 -401 36 3 86 13 110 23 56 22
145 77 185 114 l30 28 80 -14 c44 -7 143 -17 220 -20 270 -13 518 48 694 169
36 25 48 28 70 21 19 -7 27 -17 29 -40 8 -80 -233 -215 -464 -260 -148 -29
-469 -22 -585 12 -9 2 -37 -12 -62 -31 l-47 -36 0 -71 c0 -307 -258 -546 -594
-549 -93 -1 -118 11 -114 54 l3 32 105 6 c247 15 419 131 474 318 14 48 23
161 12 161 -2 0 -22 -6 -44 -14 -147 -52 -301 -17 -414 94 -45 46 -70 61 -124
79 -212 70 -314 269 -255 501 12 47 35 107 51 134 17 27 29 50 28 51 -35 30
-244 99 -364 120 -218 38 -408 -3 -526 -113 -82 -77 -107 -187 -73 -331 9 -35
14 -65 13 -67 -4 -3 -186 50 -192 57 -3 2 -35 162 -71 354 -36 193 -68 362
-71 376 -4 21 -12 28 -41 32 -67 11 -132 73 -153 148 -27 91 6 190 84 254 l47
38 -30 26 c-26 24 -31 38 -50 156 -62 383 -247 1459 -315 1830 l-44 240 24 25
c27 29 54 90 54 122 0 165 -195 257 -320 151 -111 -93 -84 -280 47 -324 22 -7
33 -18 37 -37 3 -15 26 -148 51 -297 25 -148 55 -322 66 -385 26 -151 135
-785 142 -830 3 -19 29 -163 57 -320 28 -157 52 -291 53 -298 1 -8 -15 -19
-36 -27 -135 -47 -195 -205 -153 -403 40 -189 129 -286 297 -322 l56 -12 16
-92 c9 -50 28 -167 43 -260 27 -160 27 -168 10 -178 -25 -14 -237 -190 -381
-317 -66 -58 -227 -212 -357 -341 -203 -202 -238 -233 -247 -218 -22 35 -112
96 -187 128 -144 60 -262 84 -414 84 -162 1 -222 -13 -366 -84 -83 -40 -118
-65 -197 -140 -158 -149 -246 -286 -311 -480 -19 -58 -41 -142 -48 -187 -11
-76 -15 -83 -40 -92 -55 -19 -174 -95 -214 -137 -100 -102 -117 -292 -54 -601
54 -260 120 -368 295 -484 151 -100 552 -282 891 -403 560 -200 1391 -405
1914 -473 185 -24 540 -24 705 0 245 36 491 94 670 159 143 53 197 80 228 118
34 40 63 134 72 232 8 80 18 93 29 36 4 -18 27 -75 52 -127 80 -164 184 -249
387 -315 217 -71 450 -112 582 -103 168 11 290 73 441 222 236 233 392 587
434 986 49 465 -81 829 -363 1019 -179 119 -560 193 -760 146 -429 -101 -761
-596 -821 -1227 l-11 -118 -68 74 -68 74 16 105 c67 452 278 848 567 1066 92
70 234 141 328 165 259 66 672 -15 920 -180 85 -57 208 -185 260 -274 56 -94
108 -228 137 -351 29 -126 40 -340 25 -475 -6 -49 -9 -92 -7 -94 8 -7 295 94
373 132 46 22 106 60 133 84 l49 45 52 -41 c104 -83 210 -119 588 -198 155
-32 192 -36 320 -36 131 0 152 3 218 26 327 117 588 557 657 1105 67 539 -95
949 -422 1072 -75 28 -240 56 -503 85 -356 39 -466 32 -608 -39 -75 -38 -138
-85 -235 -176 -45 -42 -72 -60 -91 -60 -14 0 -26 3 -26 8 0 4 37 55 83 112 46
58 147 191 225 295 317 424 449 570 635 703 168 119 228 194 244 304 27 174
-76 351 -254 436 -71 34 -86 37 -163 37 -69 0 -94 -4 -133 -24 -121 -59 -312
-288 -572 -686 -92 -141 -258 -412 -289 -472 -9 -18 -20 -33 -24 -33 -4 0 -22
28 -39 63 -54 111 -158 207 -261 242 -35 12 -36 15 -59 105 -24 99 -69 204
-109 257 -18 24 -22 34 -12 38 7 2 42 13 78 25 36 11 128 52 205 90 370 183
646 493 769 864 55 166 70 265 69 466 0 120 -5 213 -15 264 l-15 80 39 50
c226 298 444 1197 318 1311 -47 42 -286 6 -600 -91 -215 -66 -241 -72 -259
-50 -7 8 -21 77 -32 153 -26 179 -71 392 -110 518 -81 264 -186 358 -378 341
-97 -9 -210 -34 -388 -85 -78 -23 -177 -46 -220 -52 -173 -25 -364 22 -619
149 -107 54 -173 72 -263 72 -57 0 -91 -7 -134 -24z m208 -141 c-22 -8 -134
-11 -123 -3 7 4 40 7 73 7 33 0 56 -2 50 -4z m55 -15 c18 -12 2 -12 -25 0 -13
6 -15 9 -5 9 8 0 22 -4 30 -9z m-281 -72 c-34 -35 -95 -115 -137 -178 -79
-120 -112 -163 -72 -95 54 93 143 214 198 273 33 34 63 62 66 62 3 0 -21 -28
-55 -62z m341 47 c14 -8 21 -14 15 -14 -5 0 -21 6 -35 14 -14 8 -20 14 -15 14
6 0 21 -6 35 -14z m165 -75 c33 -16 56 -29 50 -29 -5 0 -37 13 -70 29 -33 15
-55 28 -50 28 6 0 37 -12 70 -28z m1245 20 c19 -10 70 -88 70 -106 0 -5 -12
11 -26 36 -33 58 -44 64 -129 71 l-70 5 68 2 c38 1 77 -3 87 -8z m-177 -7 c-7
-2 -19 -2 -25 0 -7 3 -2 5 12 5 14 0 19 -2 13 -5z m-50 -10 c-7 -2 -19 -2 -25
0 -7 3 -2 5 12 5 14 0 19 -2 13 -5z m-46 -9 c-3 -3 -12 -4 -19 -1 -8 3 -5 6 6
6 11 1 17 -2 13 -5z m-40 -10 c-3 -3 -12 -4 -19 -1 -8 3 -5 6 6 6 11 1 17 -2
13 -5z m-787 -41 c30 -11 31 -12 6 -8 -16 4 -43 13 -60 20 -23 11 -25 13 -6 8
14 -3 41 -12 60 -20z m717 21 c-3 -3 -12 -4 -19 -1 -8 3 -5 6 6 6 11 1 17 -2
13 -5z m-52 -14 c-11 -5 -27 -9 -35 -9 -9 0 -8 4 5 9 11 5 27 9 35 9 9 0 8 -4
-5 -9z m-58 -16 c-3 -3 -12 -4 -19 -1 -8 3 -5 6 6 6 11 1 17 -2 13 -5z m-40
-10 c-3 -3 -12 -4 -19 -1 -8 3 -5 6 6 6 11 1 17 -2 13 -5z m-470 -10 c-3 -3
-12 -4 -19 -1 -8 3 -5 6 6 6 11 1 17 -2 13 -5z m430 0 c-3 -3 -12 -4 -19 -1
-8 3 -5 6 6 6 11 1 17 -2 13 -5z m-374 -11 c-7 -2 -19 -2 -25 0 -7 3 -2 5 12
5 14 0 19 -2 13 -5z m330 0 c-7 -2 -21 -2 -30 0 -10 3 -4 5 12 5 17 0 24 -2
18 -5z m-196 -10 c-20 -2 -52 -2 -70 0 -17 2 0 4 38 4 39 0 53 -2 32 -4z m116
0 c-13 -2 -33 -2 -45 0 -13 2 -3 4 22 4 25 0 35 -2 23 -4z m806 -93 c0 -8 -7
1 -14 20 -18 46 -17 64 0 25 8 -16 14 -37 14 -45z m30 -100 c0 -9 -4 -8 -9 5
-5 11 -9 27 -9 35 0 9 4 8 9 -5 5 -11 9 -27 9 -35z m-2151 -49 c-18 -33 -34
-58 -36 -56 -5 4 57 115 64 115 3 0 -10 -27 -28 -59z m2159 -3 c-3 -8 -6 -5
-6 6 -1 11 2 17 5 13 3 -3 4 -12 1 -19z m10 -50 c-3 -7 -5 -2 -5 12 0 14 2 19
5 13 2 -7 2 -19 0 -25z m-2154 -52 c187 -104 571 -216 897 -260 431 -60 824
-38 1190 64 71 19 107 25 111 18 4 -6 10 -41 14 -77 3 -36 9 -76 12 -87 4 -20
-4 -24 -104 -48 -276 -65 -480 -89 -758 -90 -410 0 -784 58 -1141 179 -172 58
-374 143 -374 158 0 11 82 177 88 177 2 0 31 -15 65 -34z m2164 2 c-3 -7 -5
-2 -5 12 0 14 2 19 5 13 2 -7 2 -19 0 -25z m10 -40 c-3 -8 -6 -5 -6 6 -1 11 2
17 5 13 3 -3 4 -12 1 -19z m10 -60 c-3 -8 -6 -5 -6 6 -1 11 2 17 5 13 3 -3 4
-12 1 -19z m-2357 -91 c0 -2 -15 -16 -32 -33 l-33 -29 29 33 c28 30 36 37 36
29z m-100 -82 c0 -6 -117 -65 -127 -65 -4 1 21 16 57 35 72 38 70 37 70 30z
m-166 -80 c-17 -8 -44 -16 -60 -20 -16 -3 -6 4 21 14 57 22 86 26 39 6z m-97
-31 c-3 -3 -12 -4 -19 -1 -8 3 -5 6 6 6 11 1 17 -2 13 -5z m-44 -11 c-7 -2
-19 -2 -25 0 -7 3 -2 5 12 5 14 0 19 -2 13 -5z m-50 -10 c-7 -2 -19 -2 -25 0
-7 3 -2 5 12 5 14 0 19 -2 13 -5z m-55 -10 c-10 -2 -26 -2 -35 0 -10 3 -2 5
17 5 19 0 27 -2 18 -5z m-61 -9 c-3 -3 -12 -4 -19 -1 -8 3 -5 6 6 6 11 1 17
-2 13 -5z m-100 -42 c-10 -10 -18 -32 -18 -48 l-2 -29 -4 28 c-4 25 18 67 35
67 3 0 -2 -8 -11 -18z m3146 -22 c21 -7 37 -14 34 -16 -5 -5 -68 16 -84 29 -7
5 -13 14 -13 20 0 6 6 4 13 -5 6 -9 29 -21 50 -28z m77 -30 c8 -5 11 -10 5
-10 -5 0 -17 5 -25 10 -8 5 -10 10 -5 10 6 0 17 -5 25 -10z m50 -20 c8 -5 11
-10 5 -10 -5 0 -17 5 -25 10 -8 5 -10 10 -5 10 6 0 17 -5 25 -10z m-3270 -35
c14 -19 14 -19 -2 -6 -10 7 -18 18 -18 24 0 6 1 8 3 6 1 -2 9 -13 17 -24z
m3326 9 c18 -14 18 -14 -6 -3 -31 14 -36 19 -24 19 6 0 19 -7 30 -16z m92 -61
c23 -19 47 -44 53 -55 7 -12 -6 -4 -27 18 -22 22 -52 50 -69 63 -16 12 -23 19
-15 15 8 -4 34 -22 58 -41z m-3342 -25 c4 -7 -9 1 -29 16 -20 16 -37 30 -37
33 0 7 58 -36 66 -49z m84 -54 c0 -7 -58 25 -65 36 -3 5 10 1 29 -11 20 -12
36 -23 36 -25z m76 -42 c-5 -4 -66 26 -66 33 0 3 16 -3 35 -12 19 -9 33 -18
31 -21z m3264 -15 c0 -62 -57 -125 -160 -177 -87 -44 -88 -36 -1 10 119 63
158 111 148 184 -4 26 -2 35 4 25 5 -7 9 -27 9 -42z m-3190 -12 c14 -8 21 -14
15 -14 -5 0 -21 6 -35 14 -14 8 -20 14 -15 14 6 0 21 -6 35 -14z m105 -41 c24
-11 25 -13 5 -8 -14 4 -38 13 -55 20 -24 11 -25 13 -5 8 14 -4 39 -13 55 -20z
m125 -39 c19 -7 28 -13 20 -13 -8 0 -31 6 -50 13 -19 7 -28 13 -20 13 8 0 31
-6 50 -13z m85 -25 c13 -5 14 -9 5 -9 -8 0 -24 4 -35 9 -13 5 -14 9 -5 9 8 0
24 -4 35 -9z m52 -16 c-3 -3 -12 -4 -19 -1 -8 3 -5 6 6 6 11 1 17 -2 13 -5z
m40 -10 c-3 -3 -12 -4 -19 -1 -8 3 -5 6 6 6 11 1 17 -2 13 -5z m40 -10 c-3 -3
-12 -4 -19 -1 -8 3 -5 6 6 6 11 1 17 -2 13 -5z m40 -10 c-3 -3 -12 -4 -19 -1
-8 3 -5 6 6 6 11 1 17 -2 13 -5z m40 -10 c-3 -3 -12 -4 -19 -1 -8 3 -5 6 6 6
11 1 17 -2 13 -5z m73 -14 c20 -6 21 -8 5 -8 -11 0 -31 4 -45 8 -20 6 -21 8
-5 8 11 0 31 -4 45 -8z m63 -17 c-7 -2 -19 -2 -25 0 -7 3 -2 5 12 5 14 0 19
-2 13 -5z m50 -10 c-7 -2 -19 -2 -25 0 -7 3 -2 5 12 5 14 0 19 -2 13 -5z
m2237 2 c0 -6 -157 -55 -173 -54 -7 0 26 13 73 29 92 30 100 32 100 25z
m-2187 -12 c-7 -2 -19 -2 -25 0 -7 3 -2 5 12 5 14 0 19 -2 13 -5z m60 -10 c-7
-2 -21 -2 -30 0 -10 3 -4 5 12 5 17 0 24 -2 18 -5z m50 -10 c-7 -2 -19 -2 -25
0 -7 3 -2 5 12 5 14 0 19 -2 13 -5z m70 -10 c-7 -2 -21 -2 -30 0 -10 3 -4 5
12 5 17 0 24 -2 18 -5z m60 -10 c-7 -2 -21 -2 -30 0 -10 3 -4 5 12 5 17 0 24
-2 18 -5z m65 -10 c-10 -2 -26 -2 -35 0 -10 3 -2 5 17 5 19 0 27 -2 18 -5z
m1685 0 c-7 -2 -19 -2 -25 0 -7 3 -2 5 12 5 14 0 19 -2 13 -5z m-1605 -10
c-10 -2 -28 -2 -40 0 -13 2 -5 4 17 4 22 1 32 -1 23 -4z m1542 -3 c-14 -4 -36
-8 -50 -8 -22 0 -22 1 5 8 17 4 39 8 50 8 16 0 15 -2 -5 -8z m-1462 -7 c-10
-2 -28 -2 -40 0 -13 2 -5 4 17 4 22 1 32 -1 23 -4z m65 -10 c-7 -2 -21 -2 -30
0 -10 3 -4 5 12 5 17 0 24 -2 18 -5z m1310 0 c-7 -2 -21 -2 -30 0 -10 3 -4 5
12 5 17 0 24 -2 18 -5z m-1210 -10 c-13 -2 -35 -2 -50 0 -16 2 -5 4 22 4 28 0
40 -2 28 -4z m1135 0 c-10 -2 -26 -2 -35 0 -10 3 -2 5 17 5 19 0 27 -2 18 -5z
m-1035 -10 c-13 -2 -35 -2 -50 0 -16 2 -5 4 22 4 28 0 40 -2 28 -4z m955 0
c-10 -2 -26 -2 -35 0 -10 3 -2 5 17 5 19 0 27 -2 18 -5z m-830 -10 c-15 -2
-42 -2 -60 0 -18 2 -6 4 27 4 33 0 48 -2 33 -4z m740 0 c-15 -2 -42 -2 -60 0
-18 2 -6 4 27 4 33 0 48 -2 33 -4z m-250 -10 c-76 -2 -200 -2 -275 0 -76 1
-14 3 137 3 151 0 213 -2 138 -3z m-1982 -379 c82 -46 129 -125 146 -242 30
-205 -100 -462 -256 -507 -212 -62 -361 188 -286 480 23 89 55 149 113 213 85
91 186 111 283 56z m1529 -165 c57 -14 128 -77 159 -138 84 -166 47 -405 -84
-554 -106 -120 -257 -131 -360 -28 -69 69 -94 139 -94 266 0 212 104 398 253
451 45 16 71 17 126 3z m-1044 -674 c57 -20 79 -42 79 -78 0 -60 -80 -126
-155 -127 -67 0 -135 72 -135 143 0 31 5 40 33 57 39 24 116 26 178 5z m-1101
-1615 c41 -12 78 -25 83 -29 9 -9 -238 -325 -258 -329 -25 -6 -54 18 -95 79
-55 79 -90 157 -90 196 0 103 157 140 360 83z m160 -65 c28 -14 50 -28 50 -30
0 -5 -99 42 -109 51 -12 11 15 1 59 -21z m2877 -57 c-2 -13 -4 -3 -4 22 0 25
2 35 4 23 2 -13 2 -33 0 -45z m67 -19 c16 -27 25 -53 22 -56 -3 -4 -6 -2 -6 3
0 6 -16 36 -35 68 -19 32 -29 53 -22 47 8 -6 26 -34 41 -62z m-2863 24 c13
-16 12 -17 -3 -4 -17 13 -22 21 -14 21 2 0 10 -8 17 -17z m2806 -95 c-2 -13
-4 -5 -4 17 -1 22 1 32 4 23 2 -10 2 -28 0 -40z m108 -96 l5 -57 -14 70 c-17
83 -18 99 -5 67 5 -13 11 -49 14 -80z m-2976 8 c-34 -44 -64 -80 -67 -80 -5 0
-4 2 67 93 29 37 55 67 57 67 3 0 -23 -36 -57 -80z m2878 -142 c-2 -35 -3 -9
-3 57 0 66 1 94 3 63 2 -32 2 -86 0 -120z m-3799 62 c308 -68 841 -222 966
-279 33 -15 75 -40 93 -55 30 -25 63 -98 63 -139 0 -10 -56 -117 -124 -236
-341 -595 -546 -1045 -714 -1561 -37 -113 -37 -114 -82 -138 -107 -56 -272
-114 -285 -100 -7 7 105 299 176 460 35 79 118 251 184 383 205 405 358 668
620 1067 l163 246 -21 20 c-29 26 -51 37 -149 72 -197 70 -665 200 -922 255
-116 25 -120 25 -140 7 -12 -10 -55 -47 -96 -83 -215 -184 -479 -436 -775
-740 -361 -369 -965 -1107 -965 -1178 0 -26 250 -123 580 -225 397 -123 848
-229 1085 -256 260 -29 259 -29 145 -24 -372 18 -1151 215 -1687 427 -122 48
-133 54 -133 78 -1 81 626 841 1050 1273 288 293 791 756 821 756 5 0 71 -14
147 -30z m3909 -252 c-1 -51 -3 -12 -3 87 0 99 2 141 3 93 2 -48 2 -129 0
-180z m-3187 232 c8 -5 11 -10 5 -10 -5 0 -17 5 -25 10 -8 5 -10 10 -5 10 6 0
17 -5 25 -10z m109 -19 c-21 -29 -22 -29 -55 -13 -19 8 -32 17 -30 19 2 2 15
-2 30 -8 24 -11 30 -10 49 9 30 30 32 28 6 -7z m2958 -188 c-2 -16 -4 -5 -4
22 0 28 2 40 4 28 2 -13 2 -35 0 -50z m-10 -90 c-3 -10 -5 -2 -5 17 0 19 2 27
5 18 2 -10 2 -26 0 -35z m-10 -70 c-3 -10 -5 -4 -5 12 0 17 2 24 5 18 2 -7 2
-21 0 -30z m-2024 12 c-3 -9 -8 -14 -10 -11 -3 3 -2 9 2 15 9 16 15 13 8 -4z
m-264 -21 c-13 -14 -37 -35 -54 -46 -16 -12 -7 0 20 25 55 51 71 61 34 21z
m2418 -81 c-2 -21 -4 -6 -4 32 0 39 2 55 4 38 2 -18 2 -50 0 -70z m-140 35
c-3 -7 -5 -2 -5 12 0 14 2 19 5 13 2 -7 2 -19 0 -25z m-2089 -50 c-33 -40
-129 -108 -153 -108 -5 0 16 15 48 32 33 18 75 51 94 75 20 24 38 43 40 43 3
0 -10 -19 -29 -42z m2079 0 c-3 -7 -5 -2 -5 12 0 14 2 19 5 13 2 -7 2 -19 0
-25z m-2439 -5 c-9 -2 -19 -12 -21 -21 -3 -12 -5 -10 -6 6 -1 17 4 22 22 21
15 -1 17 -3 5 -6z m2429 -45 c-3 -8 -6 -5 -6 6 -1 11 2 17 5 13 3 -3 4 -12 1
-19z m-2608 -123 c1 -79 -2 -96 -24 -135 -231 -417 -370 -728 -555 -1239 l-77
-214 -94 -53 c-52 -29 -96 -50 -99 -47 -3 3 0 7 5 10 6 2 48 25 94 51 l85 47
72 200 c163 454 342 859 517 1170 l62 110 -1 120 c0 66 3 109 7 95 4 -14 7
-66 8 -115z m2758 83 c-2 -13 -4 -5 -4 17 -1 22 1 32 4 23 2 -10 2 -28 0 -40z
m328 21 c487 -106 554 -129 590 -200 21 -40 19 -83 -15 -247 -39 -186 -63
-336 -95 -596 -14 -114 -32 -221 -40 -236 -33 -64 -177 -159 -267 -177 -29 -6
-31 -4 -20 9 13 17 36 353 47 718 8 229 1 278 -45 345 -42 61 -105 82 -258 87
l-93 3 5 30 c3 17 11 90 17 163 8 75 17 132 23 132 6 0 73 -14 151 -31z
m-4468 15 c-3 -3 -12 -4 -19 -1 -8 3 -5 6 6 6 11 1 17 -2 13 -5z m1550 -26
c-3 -7 -5 -2 -5 12 0 14 2 19 5 13 2 -7 2 -19 0 -25z m2427 -32 c-3 -21 -8
-35 -11 -32 -2 2 -1 20 3 40 3 21 8 35 11 32 2 -2 1 -20 -3 -40z m-3859 19
c86 -23 170 -71 224 -131 93 -102 126 -223 99 -363 -47 -239 -236 -457 -502
-582 -106 -49 -205 -71 -331 -71 -177 -1 -302 48 -404 158 -78 83 -104 149
-104 264 1 161 80 318 238 475 133 131 278 212 450 250 84 19 257 18 330 0z
m1463 -48 c12 -3 10 -5 -5 -6 -19 -1 -23 4 -22 27 1 22 2 23 6 5 2 -12 12 -24
21 -26z m139 17 c-3 -3 -12 -4 -19 -1 -8 3 -5 6 6 6 11 1 17 -2 13 -5z m-49
-11 c-10 -2 -26 -2 -35 0 -10 3 -2 5 17 5 19 0 27 -2 18 -5z m2459 -30 c-3
-10 -5 -4 -5 12 0 17 2 24 5 18 2 -7 2 -21 0 -30z m-178 -47 c-6 -26 -13 -45
-16 -43 -2 3 1 26 8 51 6 26 13 45 16 43 2 -3 -1 -26 -8 -51z m168 -13 c-3
-10 -5 -4 -5 12 0 17 2 24 5 18 2 -7 2 -21 0 -30z m-10 -55 c-3 -7 -5 -2 -5
12 0 14 2 19 5 13 2 -7 2 -19 0 -25z m-190 -40 c-3 -8 -6 -5 -6 6 -1 11 2 17
5 13 3 -3 4 -12 1 -19z m180 0 c-3 -8 -6 -5 -6 6 -1 11 2 17 5 13 3 -3 4 -12
1 -19z m1973 -57 c143 -102 146 -512 5 -798 -77 -156 -174 -242 -272 -243 -58
0 -114 50 -144 128 -31 82 -38 264 -14 403 61 365 272 618 425 510z m-2186
-45 c-9 -26 -18 -45 -20 -43 -2 2 3 25 12 51 9 26 18 45 20 43 2 -2 -3 -25
-12 -51z m383 22 c-3 -8 -6 -5 -6 6 -1 11 2 17 5 13 3 -3 4 -12 1 -19z m-210
-39 c-8 -19 -23 -42 -34 -52 -20 -17 -173 -77 -196 -77 -7 1 30 16 82 35 105
38 125 53 142 102 6 19 13 32 16 30 2 -3 -2 -20 -10 -38z m200 -1 c-3 -8 -6
-5 -6 6 -1 11 2 17 5 13 3 -3 4 -12 1 -19z m-3790 -45 c-3 -10 -5 -2 -5 17 0
19 2 27 5 18 2 -10 2 -26 0 -35z m3767 -28 c-23 -49 -28 -38 -6 13 9 23 18 37
20 32 2 -5 -4 -25 -14 -45z m-385 -4 c-6 -18 -13 -30 -15 -28 -2 2 1 18 7 36
6 18 13 30 15 28 2 -2 -1 -18 -7 -36z m-3382 -38 c-3 -10 -5 -4 -5 12 0 17 2
24 5 18 2 -7 2 -21 0 -30z m-1717 -7 c0 -2 -6 -9 -13 -15 -10 -8 -14 -7 -14 4
0 8 6 15 14 15 7 0 13 -2 13 -4z m5429 -42 c-13 -14 -55 -40 -94 -59 -80 -37
-339 -135 -358 -135 -6 1 53 25 133 56 179 67 283 116 307 143 9 12 22 21 27
21 5 0 -1 -12 -15 -26z m-3722 -6 c-3 -8 -6 -5 -6 6 -1 11 2 17 5 13 3 -3 4
-12 1 -19z m-1737 9 c0 -2 -12 -14 -27 -28 l-28 -24 24 28 c23 25 31 32 31 24z
m-120 -20 c0 -2 -12 -14 -27 -28 l-28 -24 24 28 c23 25 31 32 31 24z m25 -92
c-26 -30 -50 -55 -53 -55 -5 0 8 16 67 83 45 50 33 28 -14 -28z m-97 5 c-22
-30 -35 -41 -22 -17 9 16 36 47 41 47 2 0 -6 -13 -19 -30z m-50 -85 c-12 -24
-23 -43 -26 -41 -4 5 36 86 43 86 3 0 -5 -20 -17 -45z m599 -2 c-3 -10 -5 -4
-5 12 0 17 2 24 5 18 2 -7 2 -21 0 -30z m-507 14 c0 -2 -12 -14 -27 -28 l-28
-24 24 28 c23 25 31 32 31 24z m3216 -52 c4 -8 -16 -50 -45 -95 -70 -108 -115
-205 -136 -290 -18 -75 -30 -86 -45 -44 -20 51 29 245 84 332 56 89 127 137
142 97z m-3266 -8 c0 -2 -10 -12 -22 -23 l-23 -19 19 23 c18 21 26 27 26 19z
m-79 -34 c-12 -20 -14 -14 -5 12 4 9 9 14 11 11 3 -2 0 -13 -6 -23z m39 -16
c0 -2 -10 -12 -22 -23 l-23 -19 19 23 c18 21 26 27 26 19z m-58 -69 c-7 -7
-12 -8 -12 -2 0 14 12 26 19 19 2 -3 -1 -11 -7 -17z m-454 -162 c120 -36 230
-68 245 -72 l28 -7 -24 -26 c-37 -39 -125 -176 -153 -234 -49 -106 -26 -149
119 -217 204 -96 830 -296 1197 -384 300 -71 530 -107 697 -107 211 0 241 9
545 172 l188 101 125 -16 c69 -9 201 -21 293 -27 368 -22 429 -35 498 -111 39
-43 74 -111 73 -143 0 -11 -8 4 -18 33 -10 29 -20 55 -23 57 -3 3 -52 -17
-110 -45 -194 -93 -497 -178 -768 -217 -153 -21 -539 -24 -705 -5 -166 20
-453 67 -610 102 -77 17 -203 44 -280 61 -190 42 -718 194 -956 275 -592 202
-850 346 -957 533 l-31 55 -4 -45 c-2 -24 -3 -14 -1 23 5 110 36 147 187 222
66 32 197 83 220 85 5 1 106 -28 225 -63z m1829 -122 c-3 -3 -12 -4 -19 -1 -8
3 -5 6 6 6 11 1 17 -2 13 -5z m-194 -21 c-13 -2 -35 -2 -50 0 -16 2 -5 4 22 4
28 0 40 -2 28 -4z m1967 -96 c0 -10 -10 -12 -32 -8 l-33 5 30 7 c17 4 31 7 33
8 1 0 2 -5 2 -12z m-92 -14 c-10 -2 -26 -2 -35 0 -10 3 -2 5 17 5 19 0 27 -2
18 -5z m-425 -18 c-3 -9 -8 -14 -10 -11 -3 3 -2 9 2 15 9 16 15 13 8 -4z m335
8 c-16 -2 -40 -2 -55 0 -16 2 -3 4 27 4 30 0 43 -2 28 -4z m2077 -12 c77 -36
123 -109 150 -239 66 -309 -88 -752 -298 -857 -88 -43 -169 -32 -228 32 -175
188 -100 750 130 984 93 93 166 117 246 80z m-2227 2 c-27 -2 -69 -2 -95 0
-27 2 -5 3 47 3 52 0 74 -1 48 -3z m-214 -77 c-9 -26 -18 -45 -20 -43 -2 2 3
25 12 51 9 26 18 45 20 43 2 -2 -3 -25 -12 -51z m533 -53 c-2 -21 -4 -4 -4 37
0 41 2 58 4 38 2 -21 2 -55 0 -75z m-4210 -30 c-3 -10 -5 -4 -5 12 0 17 2 24
5 18 2 -7 2 -21 0 -30z m7250 21 c-3 -3 -12 -4 -19 -1 -8 3 -5 6 6 6 11 1 17
-2 13 -5z m-40 -10 c-3 -3 -12 -4 -19 -1 -8 3 -5 6 6 6 11 1 17 -2 13 -5z
m-7200 -91 c-3 -10 -5 -2 -5 17 0 19 2 27 5 18 2 -10 2 -26 0 -35z m7101 25
c-27 -40 -224 -133 -325 -153 -16 -3 19 12 77 33 129 48 198 82 229 116 30 32
39 34 19 4z m-2888 2 c0 -5 -12 -10 -27 -9 l-28 1 25 8 c14 4 26 8 28 9 1 1 2
-3 2 -9z m-97 -17 c-7 -2 -19 -2 -25 0 -7 3 -2 5 12 5 14 0 19 -2 13 -5z m-60
-10 c-7 -2 -19 -2 -25 0 -7 3 -2 5 12 5 14 0 19 -2 13 -5z m-46 -9 c-3 -3 -12
-4 -19 -1 -8 3 -5 6 6 6 11 1 17 -2 13 -5z m-40 -10 c-3 -3 -12 -4 -19 -1 -8
3 -5 6 6 6 11 1 17 -2 13 -5z m-3960 -46 c-3 -7 -5 -2 -5 12 0 14 2 19 5 13 2
-7 2 -19 0 -25z m3853 12 c-8 -5 -19 -10 -25 -10 -5 0 -3 5 5 10 8 5 20 10 25
10 6 0 3 -5 -5 -10z m-210 -30 c20 -6 21 -8 5 -8 -11 0 -31 4 -45 8 -20 6 -21
8 -5 8 11 0 31 -4 45 -8z m135 -10 c-10 -11 -30 -20 -44 -19 -24 1 -24 1 6 10
18 5 35 14 38 19 3 6 9 10 12 10 3 0 -2 -9 -12 -20z m-3768 -12 c-3 -8 -6 -5
-6 6 -1 11 2 17 5 13 3 -3 4 -12 1 -19z m3690 6 c-3 -3 -12 -4 -19 -1 -8 3 -5
6 6 6 11 1 17 -2 13 -5z m-3680 -46 c-3 -8 -6 -5 -6 6 -1 11 2 17 5 13 3 -3 4
-12 1 -19z m41 -123 c0 -5 -6 4 -13 20 -8 17 -14 37 -14 45 0 8 7 -1 14 -20 7
-19 13 -39 13 -45z m16 -31 c3 -8 2 -12 -4 -9 -6 3 -10 10 -10 16 0 14 7 11
14 -7z m46 -66 c19 -24 26 -37 17 -29 -19 15 -61 71 -54 71 2 0 19 -19 37 -42z
m90 -75 c0 -7 -39 17 -46 28 -3 6 5 3 20 -6 14 -10 26 -19 26 -22z m80 -49 c0
-2 -9 0 -20 6 -11 6 -20 13 -20 16 0 2 9 0 20 -6 11 -6 20 -13 20 -16z m90
-49 c0 -3 -18 4 -40 15 -22 11 -40 23 -40 25 0 3 18 -4 40 -15 22 -11 40 -23
40 -25z m55 -33 c-3 -3 -11 0 -18 7 -9 10 -8 11 6 5 10 -3 15 -9 12 -12z
m4002 -49 c-3 -10 -5 -4 -5 12 0 17 2 24 5 18 2 -7 2 -21 0 -30z m-3822 -26
c66 -30 164 -71 217 -92 54 -21 96 -40 94 -42 -5 -6 -258 98 -361 147 -116 56
-89 49 50 -13z m3833 -232 c-2 -104 -8 -168 -16 -182 -16 -28 -67 -55 -169
-88 -207 -68 -611 -153 -758 -159 l-100 -5 95 9 c243 24 753 146 881 211 20
10 40 26 45 36 4 10 10 106 13 213 3 107 7 179 9 160 2 -19 2 -107 0 -195z
m-3415 65 c38 -12 66 -24 64 -26 -5 -5 -148 43 -156 53 -3 3 1 4 9 1 8 -3 46
-15 83 -28z m112 -40 c13 -6 15 -9 5 -9 -8 0 -22 4 -30 9 -18 12 -2 12 25 0z
m105 -37 c30 -11 31 -12 6 -8 -16 4 -43 13 -60 20 -23 11 -25 13 -6 8 14 -3
41 -12 60 -20z m80 -23 c18 -12 2 -12 -25 0 -13 6 -15 9 -5 9 8 0 22 -4 30 -9z
m80 -25 c19 -7 28 -13 20 -13 -8 0 -31 6 -50 13 -19 7 -28 13 -20 13 8 0 31
-6 50 -13z m170 -51 c55 -20 22 -16 -45 6 -33 11 -44 17 -25 13 19 -3 50 -11
70 -19z m125 -35 c14 -6 9 -7 -15 -3 -19 4 -44 11 -55 15 -14 6 -9 7 15 3 19
-4 44 -11 55 -15z m110 -30 c14 -6 9 -7 -15 -3 -19 4 -44 11 -55 15 -14 6 -9
7 15 3 19 -4 44 -11 55 -15z m110 -30 c14 -6 9 -7 -15 -3 -19 4 -44 11 -55 15
-14 6 -9 7 15 3 19 -4 44 -11 55 -15z m187 -45 c65 -15 116 -29 114 -32 -6 -5
-276 59 -276 65 0 3 10 3 23 0 12 -3 75 -18 139 -33z m353 -78 c94 -19 207
-40 253 -47 46 -6 81 -14 78 -16 -11 -11 -542 89 -556 104 -6 7 -10 7 225 -41z
m595 -92 l125 -13 -105 5 c-58 3 -143 12 -190 19 -74 12 -76 13 -20 8 36 -3
121 -11 190 -19z m293 -21 c-29 -2 -78 -2 -110 0 -32 2 -8 3 52 3 61 0 87 -1
58 -3z"/>
    <path d="M7696 3786 c-3 -61 -8 -129 -11 -151 -2 -22 2 -8 10 30 7 39 14 103
14 143 1 51 5 72 14 72 33 -2 117 -27 110 -33 -4 -5 0 -5 8 -2 9 3 62 -4 118
-15 57 -12 105 -20 107 -17 2 2 -42 14 -99 26 -56 12 -139 30 -183 40 l-81 18
-7 -111z"/>
    <path d="M8125 3794 c28 -7 57 -13 65 -13 8 0 -7 7 -35 15 -27 7 -57 13 -65
13 -8 0 8 -7 35 -15z"/>
    <path d="M8225 3770 c11 -5 29 -8 40 -8 16 0 15 2 -5 8 -34 11 -60 11 -35 0z"/>
    <path d="M8331 3742 c55 -20 81 -40 72 -55 -3 -5 -1 -7 5 -3 10 6 26 -32 35
-84 4 -24 4 -24 6 3 3 62 -43 124 -108 146 -53 17 -62 11 -10 -7z"/>
    <path d="M7713 3603 c9 -2 25 -2 35 0 9 3 1 5 -18 5 -19 0 -27 -2 -17 -5z"/>
    <path d="M7850 3591 c25 -4 59 -11 75 -15 25 -6 27 -5 12 4 -10 6 -44 13 -75
15 -54 4 -55 4 -12 -4z"/>
    <path d="M8420 3516 c-7 -29 -11 -59 -8 -67 2 -7 10 15 17 50 15 78 9 91 -9
17z"/>
    <path d="M8032 3490 c7 -11 17 -20 22 -20 5 0 1 9 -9 20 -10 11 -20 20 -22 20
-2 0 2 -9 9 -20z"/>
    <path d="M8401 3423 c-1 -7 -2 -16 -3 -20 -16 -69 -27 -133 -27 -153 0 -14 9
18 20 70 10 52 17 100 15 105 -3 6 -5 4 -5 -2z"/>
    <path d="M8073 3355 c0 -27 2 -38 4 -22 2 15 2 37 0 50 -2 12 -4 0 -4 -28z"/>
    <path d="M8362 3200 c0 -14 2 -19 5 -12 2 6 2 18 0 25 -3 6 -5 1 -5 -13z"/>
    <path d="M8071 3174 c0 -11 3 -14 6 -6 3 7 2 16 -1 19 -3 4 -6 -2 -5 -13z"/>
    <path d="M8352 3140 c0 -19 2 -27 5 -17 2 9 2 25 0 35 -3 9 -5 1 -5 -18z"/>
    <path d="M8342 3070 c0 -19 2 -27 5 -17 2 9 2 25 0 35 -3 9 -5 1 -5 -18z"/>
    <path d="M8328 2990 c-4 -25 -9 -54 -11 -65 -3 -11 -7 -65 -10 -120 l-6 -100
19 140 c11 77 19 151 17 165 -1 16 -5 9 -9 -20z"/>
    <path d="M8063 2915 c0 -33 2 -45 4 -27 2 18 2 45 0 60 -2 15 -4 0 -4 -33z"/>
    <path d="M8053 2720 c0 -30 2 -43 4 -27 2 15 2 39 0 55 -2 15 -4 2 -4 -28z"/>
    <path d="M8287 2652 c-5 -28 -20 -57 -44 -85 l-37 -42 37 34 c37 35 61 87 55
118 -2 10 -7 -1 -11 -25z"/>
    <path d="M8042 2543 c-1 -28 -5 -60 -8 -70 -5 -14 -4 -15 5 -7 8 7 11 33 8 70
l-3 59 -2 -52z"/>
    <path d="M8158 2506 c-47 -28 -55 -36 -31 -30 17 5 86 54 73 53 -3 -1 -22 -11
-42 -23z"/>
    <path d="M8070 2460 c-8 -5 -10 -10 -5 -10 6 0 17 5 25 10 8 5 11 10 5 10 -5
0 -17 -5 -25 -10z"/>
    <path d="M9285 3397 c-93 -96 -155 -293 -155 -497 0 -117 10 -165 40 -198 71
-76 191 48 256 263 23 78 27 108 28 230 1 114 -2 149 -17 188 -33 85 -79 89
-152 14z"/>
    <path d="M1059 2851 c-66 -21 -211 -93 -258 -128 -18 -14 -40 -42 -48 -61 -14
-33 -13 -39 9 -86 27 -59 172 -211 190 -200 8 5 7 9 -3 13 -24 10 -59 35 -59
43 0 5 8 8 18 8 14 0 15 2 2 10 -9 6 -17 5 -22 -3 -5 -8 -8 -6 -8 6 0 10 -12
22 -26 27 -15 6 -22 14 -18 22 4 6 3 8 -3 5 -21 -13 -35 23 -34 88 0 49 -3 65
-14 65 -7 0 -16 -6 -19 -12 -3 -7 -4 -4 -3 7 2 13 9 19 21 17 14 -3 16 1 11
17 -4 12 -2 21 4 21 6 0 11 -5 11 -11 0 -5 5 -7 11 -3 8 5 8 9 -1 14 -9 6 -7
11 8 19 17 9 23 8 35 -9 l14 -21 6 21 c4 14 0 20 -11 20 -14 0 -15 2 -2 9 8 6
19 7 25 3 16 -10 36 -11 29 -1 -3 5 -13 9 -22 9 -15 0 -15 2 -2 10 8 5 24 7
35 4 14 -4 16 -3 7 4 -11 7 -8 11 10 17 12 4 29 6 36 6 6 -1 12 3 12 8 0 5 32
20 70 32 l70 23 113 -33 c159 -47 172 -47 32 -1 -135 45 -148 46 -226 21z
m-295 -237 c3 -8 2 -12 -4 -9 -6 3 -10 10 -10 16 0 14 7 11 14 -7z"/>
    <path d="M1475 2766 c87 -28 132 -39 124 -32 -7 8 -170 56 -184 55 -5 -1 22
-11 60 -23z"/>
    <path d="M843 2705 c0 -8 4 -15 9 -15 5 0 7 -4 4 -8 -3 -5 1 -9 9 -9 8 0 15 4
15 9 0 4 -4 8 -10 8 -5 0 -10 7 -10 15 0 8 -4 15 -8 15 -5 0 -9 -7 -9 -15z"/>
    <path d="M1512 2628 c-34 -51 -66 -99 -72 -105 -5 -7 -17 -39 -26 -72 -13 -54
-13 -63 1 -90 21 -42 51 -68 110 -98 28 -14 52 -28 55 -32 3 -3 16 -7 30 -8
14 -2 -11 16 -59 39 -169 86 -174 149 -31 363 56 85 62 95 57 95 -3 0 -32 -42
-65 -92z"/>
    <path d="M1295 2400 c-3 -5 -1 -10 4 -10 6 0 11 5 11 10 0 6 -2 10 -4 10 -3 0
-8 -4 -11 -10z"/>
    <path d="M1345 2401 c-3 -5 -2 -12 3 -15 5 -3 9 1 9 9 0 17 -3 19 -12 6z"/>
    <path d="M1024 2389 c-3 -5 6 -9 20 -9 31 0 34 6 6 13 -11 3 -23 1 -26 -4z"/>
    <path d="M980 2350 c36 -29 308 -162 415 -203 78 -30 163 -57 127 -41 -6 3 -9
11 -6 16 4 7 2 8 -4 4 -16 -10 -63 4 -55 17 3 6 1 7 -5 3 -7 -4 -14 3 -18 19
-3 13 -10 22 -15 19 -5 -3 -9 2 -9 11 0 12 -6 15 -22 10 -22 -6 -22 -5 -3 6
11 7 23 17 27 23 4 6 8 0 8 -14 0 -20 2 -22 10 -10 14 23 -14 48 -34 30 -11
-8 -16 -9 -16 -1 0 7 -8 8 -24 1 -13 -5 -27 -6 -31 -2 -3 4 -4 -5 -2 -19 5
-23 2 -25 -19 -21 -34 6 -39 20 -12 31 l23 10 -22 0 c-13 1 -23 -3 -23 -9 0
-5 -6 -10 -13 -10 -18 0 -220 103 -253 129 -15 12 -32 21 -38 21 -6 0 0 -9 14
-20z m375 -139 c-3 -6 4 -15 15 -21 11 -6 20 -8 20 -4 0 4 9 -1 20 -11 28 -25
21 -27 -33 -9 -41 14 -46 18 -37 35 6 10 13 19 16 19 3 0 3 -4 -1 -9z"/>
    <path d="M1080 2330 c0 -5 5 -10 11 -10 5 0 7 5 4 10 -3 6 -8 10 -11 10 -2 0
-4 -4 -4 -10z"/>
    <path d="M1360 2329 c0 -5 5 -9 11 -9 5 0 7 -6 3 -12 -6 -10 -5 -10 8 -1 8 7
19 9 23 5 5 -4 5 -2 2 4 -8 15 -47 25 -47 13z"/>
    <path d="M1300 2305 c-6 -15 -8 -30 -6 -33 3 -2 8 7 12 22 3 14 10 23 16 20 5
-3 7 -12 4 -20 -4 -11 -2 -12 14 -1 22 13 25 23 10 32 -5 3 -10 1 -10 -6 0 -8
-4 -8 -15 1 -12 10 -16 8 -25 -15z"/>
    <path d="M1413 2286 c5 -15 24 -18 24 -3 0 8 -6 14 -14 14 -7 0 -12 -5 -10
-11z"/>
    <path d="M1243 2268 c3 -9 1 -19 -6 -22 -9 -3 -9 -5 0 -5 18 -1 23 13 11 29
-8 12 -9 12 -5 -2z"/>
    <path d="M1370 2276 c0 -2 7 -7 16 -10 8 -3 12 -2 9 4 -6 10 -25 14 -25 6z"/>
    <path d="M1483 2228 c3 -10 2 -20 -3 -23 -6 -4 -10 -11 -10 -18 0 -6 7 -2 15
9 13 17 16 17 26 4 9 -13 10 -13 6 2 -3 9 -3 19 1 21 4 2 2 3 -4 1 -6 -1 -17
3 -24 9 -10 9 -12 8 -7 -5z"/>
    <path d="M1650 2210 c8 -5 48 -21 90 -35 41 -15 84 -31 95 -35 78 -33 263 -92
515 -166 347 -100 474 -132 710 -174 112 -21 131 -23 253 -40 88 -11 266 -12
312 0 17 4 -26 5 -95 2 -219 -8 -637 65 -1030 180 -74 22 -202 59 -285 83 -82
24 -244 78 -360 120 -212 76 -232 82 -205 65z"/>
    <path d="M1490 2161 c0 -6 4 -13 10 -16 6 -3 7 1 4 9 -7 18 -14 21 -14 7z"/>
    <path d="M1572 2157 c10 -8 14 -18 10 -22 -4 -5 -1 -5 6 -1 17 10 15 14 -10
26 -21 10 -21 10 -6 -3z"/>
    <path d="M1540 2097 c0 -3 24 -13 53 -23 28 -9 57 -19 64 -21 6 -3 10 3 9 13
-2 12 -13 17 -37 19 -19 1 -46 5 -61 9 -16 5 -28 6 -28 3z"/>
    <path d="M1686 2063 c-7 -17 9 -33 34 -32 8 0 5 4 -7 9 -15 6 -21 15 -17 25 3
8 4 15 1 15 -3 0 -8 -8 -11 -17z"/>
    <path d="M1796 2068 c3 -5 10 -6 15 -3 13 9 11 12 -6 12 -8 0 -12 -4 -9 -9z"/>
    <path d="M1750 2020 c20 -13 33 -13 25 0 -3 6 -14 10 -23 10 -15 0 -15 -2 -2
-10z"/>
    <path d="M4138 2004 c-27 -13 -48 -27 -48 -30 0 -2 8 -1 18 4 87 45 90 46 196
34 55 -7 115 -12 131 -11 37 2 -155 27 -210 28 -24 0 -59 -10 -87 -25z"/>
    <path d="M1825 1997 c17 -7 44 -17 60 -21 27 -5 28 -5 10 6 -11 7 -27 13 -35
14 -8 1 -26 5 -40 9 -20 5 -19 3 5 -8z"/>
    <path d="M4485 1994 c39 -9 275 -19 275 -12 0 5 -28 8 -62 8 -35 0 -101 2
-148 5 -47 2 -76 2 -65 -1z"/>
    <path d="M4793 1973 c15 -2 39 -2 55 0 15 2 2 4 -28 4 -30 0 -43 -2 -27 -4z"/>
    <path d="M3925 1889 c-82 -43 -177 -88 -210 -98 -33 -11 -52 -20 -42 -20 10
-1 46 10 81 24 91 36 356 178 326 174 -3 0 -72 -36 -155 -80z"/>
    <path d="M4960 1956 c30 -6 61 -15 69 -20 10 -6 12 -5 7 2 -8 14 -72 32 -106
31 -14 0 0 -6 30 -13z"/>
    <path d="M1965 1950 c27 -12 43 -12 25 0 -8 5 -22 9 -30 9 -10 0 -8 -3 5 -9z"/>
    <path d="M2020 1941 c0 -8 41 -23 47 -17 2 1 -8 8 -22 14 -14 6 -25 8 -25 3z"/>
    <path d="M2086 1921 c-4 -5 8 -12 26 -16 18 -4 40 -8 49 -11 9 -2 16 2 16 9 0
7 -7 13 -16 13 -9 0 -28 3 -43 7 -15 4 -29 3 -32 -2z"/>
    <path d="M2360 1916 c0 -2 7 -7 16 -10 8 -3 12 -2 9 4 -6 10 -25 14 -25 6z"/>
    <path d="M5080 1906 c0 -2 8 -10 18 -17 15 -13 16 -12 3 4 -13 16 -21 21 -21
13z"/>
    <path d="M2205 1881 c11 -4 36 -11 55 -15 24 -4 29 -3 15 3 -11 4 -36 11 -55
15 -24 4 -29 3 -15 -3z"/>
    <path d="M2330 1846 c20 -7 51 -16 70 -20 l35 -6 -35 14 c-20 7 -51 16 -70 20
l-35 6 35 -14z"/>
    <path d="M5044 1824 c-18 -14 -18 -15 4 -4 12 6 22 13 22 15 0 8 -5 6 -26 -11z"/>
    <path d="M2535 1790 c11 -5 27 -9 35 -9 9 0 8 4 -5 9 -11 5 -27 9 -35 9 -9 0
-8 -4 5 -9z"/>
    <path d="M2591 1776 c2 -2 18 -6 34 -10 22 -5 26 -4 15 4 -14 9 -59 15 -49 6z"/>
    <path d="M2688 1753 c6 -2 18 -2 25 0 6 3 1 5 -13 5 -14 0 -19 -2 -12 -5z"/>
    <path d="M2730 1748 c0 -5 9 -8 19 -8 11 0 22 3 24 8 3 4 -6 7 -19 7 -13 0
-24 -3 -24 -7z"/>
    <path d="M2788 1733 c7 -3 16 -2 19 1 4 3 -2 6 -13 5 -11 0 -14 -3 -6 -6z"/>
    <path d="M2828 1723 c6 -2 18 -2 25 0 6 3 1 5 -13 5 -14 0 -19 -2 -12 -5z"/>
    <path d="M2878 1713 c6 -2 18 -2 25 0 6 3 1 5 -13 5 -14 0 -19 -2 -12 -5z"/>
    <path d="M2928 1703 c6 -2 18 -2 25 0 6 3 1 5 -13 5 -14 0 -19 -2 -12 -5z"/>
    <path d="M4728 1703 c7 -3 16 -2 19 1 4 3 -2 6 -13 5 -11 0 -14 -3 -6 -6z"/>
    <path d="M2978 1693 c7 -3 16 -2 19 1 4 3 -2 6 -13 5 -11 0 -14 -3 -6 -6z"/>
    <path d="M3058 1673 c6 -2 18 -2 25 0 6 3 1 5 -13 5 -14 0 -19 -2 -12 -5z"/>
    <path d="M3125 1660 c17 -4 39 -8 50 -8 16 0 15 2 -5 8 -14 4 -36 8 -50 8 -22
0 -22 -1 5 -8z"/>
    <path d="M3210 1649 c0 -5 11 -9 25 -9 14 0 25 2 25 4 0 2 -11 6 -25 8 -14 3
-25 1 -25 -3z"/>
    <path d="M3283 1633 c9 -2 23 -2 30 0 6 3 -1 5 -18 5 -16 0 -22 -2 -12 -5z"/>
    <path d="M3358 1623 c7 -3 16 -2 19 1 4 3 -2 6 -13 5 -11 0 -14 -3 -6 -6z"/>
    <path d="M4398 1623 c6 -2 18 -2 25 0 6 3 1 5 -13 5 -14 0 -19 -2 -12 -5z"/>
    <path d="M4348 1613 c6 -2 18 -2 25 0 6 3 1 5 -13 5 -14 0 -19 -2 -12 -5z"/>
    <path d="M4273 1603 c9 -2 23 -2 30 0 6 3 -1 5 -18 5 -16 0 -22 -2 -12 -5z"/>
    <path d="M3568 1593 c6 -2 18 -2 25 0 6 3 1 5 -13 5 -14 0 -19 -2 -12 -5z"/>
    <path d="M3618 1593 c6 -2 18 -2 25 0 6 3 1 5 -13 5 -14 0 -19 -2 -12 -5z"/>
    <path d="M4188 1593 c12 -2 30 -2 40 0 9 3 -1 5 -23 4 -22 0 -30 -2 -17 -4z"/>
    <path d="M3728 1583 c12 -2 30 -2 40 0 9 3 -1 5 -23 4 -22 0 -30 -2 -17 -4z"/>
    <path d="M3798 1583 c7 -3 16 -2 19 1 4 3 -2 6 -13 5 -11 0 -14 -3 -6 -6z"/>
    <path d="M3893 1583 c9 -2 23 -2 30 0 6 3 -1 5 -18 5 -16 0 -22 -2 -12 -5z"/>
    <path d="M4043 1583 c15 -2 39 -2 55 0 15 2 2 4 -28 4 -30 0 -43 -2 -27 -4z"/>
    <path d="M6714 2391 c-71 -43 -147 -173 -185 -317 -27 -98 -32 -312 -10 -387
27 -93 89 -129 160 -92 70 36 159 177 196 310 26 93 32 317 11 390 -31 104
-97 141 -172 96z"/>
    <path d="M2689 9385 c-111 -102 -186 -158 -291 -214 -328 -177 -727 -201
-1260 -77 -192 45 -223 43 -259 -19 -63 -108 -247 -876 -295 -1230 -22 -159
-25 -555 -6 -720 70 -607 313 -1117 735 -1547 226 -230 607 -502 902 -645 132
-64 162 -64 310 0 107 46 384 194 417 224 15 14 15 17 -2 46 -39 65 -90 228
-98 308 l-7 79 -108 -70 c-172 -111 -293 -180 -317 -180 -30 0 -216 103 -355
195 -563 374 -897 870 -995 1476 -63 392 -35 847 81 1314 29 115 78 286 84
293 2 2 40 -4 86 -13 159 -33 266 -46 419 -52 391 -15 712 73 963 261 45 34
88 65 94 69 8 5 58 -19 124 -58 120 -71 176 -98 309 -150 154 -59 440 -115
587 -115 l70 0 12 65 c24 133 86 221 185 265 l41 19 -65 4 c-36 2 5 2 91 0
175 -3 244 -17 421 -83 59 -22 111 -40 116 -40 22 0 -30 296 -57 323 -19 20
-40 18 -266 -17 -227 -36 -466 -29 -710 20 -259 52 -478 140 -680 274 -69 46
-123 74 -146 77 -34 5 -42 0 -130 -82z m181 -136 c14 -11 19 -18 12 -14 -57
30 -65 35 -52 35 8 0 26 -10 40 -21z m-129 -39 c-51 -46 -171 -136 -171 -127
0 2 39 33 88 69 48 36 96 75 106 87 11 11 22 21 25 21 3 -1 -18 -23 -48 -50z
m229 -26 c0 -2 -9 0 -20 6 -11 6 -20 13 -20 16 0 2 9 0 20 -6 11 -6 20 -13 20
-16z m176 -92 c-5 -4 -166 76 -166 83 0 3 38 -14 85 -37 46 -23 83 -44 81 -46z
m69 -23 c22 -10 29 -16 15 -13 -28 7 -80 33 -65 33 6 0 28 -9 50 -20z m-655 6
c0 -2 -10 -9 -22 -15 -22 -11 -22 -10 -4 4 21 17 26 19 26 11z m-50 -30 c0 -2
-10 -9 -22 -15 -22 -11 -22 -10 -4 4 21 17 26 19 26 11z m915 -45 c13 -5 14
-9 5 -9 -8 0 -24 4 -35 9 -13 5 -14 9 -5 9 8 0 24 -4 35 -9z m-1035 -20 c-8
-5 -19 -10 -25 -10 -5 0 -3 5 5 10 8 5 20 10 25 10 6 0 3 -5 -5 -10z m1087 4
c-3 -3 -12 -4 -19 -1 -8 3 -5 6 6 6 11 1 17 -2 13 -5z m46 -11 c-7 -2 -19 -2
-25 0 -7 3 -2 5 12 5 14 0 19 -2 13 -5z m50 -10 c-7 -2 -19 -2 -25 0 -7 3 -2
5 12 5 14 0 19 -2 13 -5z m-2530 -10 c-12 -2 -25 -13 -28 -24 -4 -11 -9 -18
-12 -16 -11 12 19 47 40 46 l22 -2 -22 -4z m2590 0 c-7 -2 -19 -2 -25 0 -7 3
-2 5 12 5 14 0 19 -2 13 -5z m-2536 -9 c-3 -3 -12 -4 -19 -1 -8 3 -5 6 6 6 11
1 17 -2 13 -5z m1177 -9 c-17 -8 -44 -16 -60 -20 -16 -3 -6 4 21 14 57 22 86
26 39 6z m1429 8 c-7 -2 -21 -2 -30 0 -10 3 -4 5 12 5 17 0 24 -2 18 -5z
m-2566 -9 c-3 -3 -12 -4 -19 -1 -8 3 -5 6 6 6 11 1 17 -2 13 -5z m2656 -1
c-13 -2 -33 -2 -45 0 -13 2 -3 4 22 4 25 0 35 -2 23 -4z m680 0 c-7 -2 -21 -2
-30 0 -10 3 -4 5 12 5 17 0 24 -2 18 -5z m-3296 -9 c-3 -3 -12 -4 -19 -1 -8 3
-5 6 6 6 11 1 17 -2 13 -5z m2741 -1 c-15 -2 -42 -2 -60 0 -18 2 -6 4 27 4 33
0 48 -2 33 -4z m485 0 c-7 -2 -21 -2 -30 0 -10 3 -4 5 12 5 17 0 24 -2 18 -5z
m-3180 -10 c-7 -2 -19 -2 -25 0 -7 3 -2 5 12 5 14 0 19 -2 13 -5z m44 -9 c-3
-3 -12 -4 -19 -1 -8 3 -5 6 6 6 11 1 17 -2 13 -5z m910 0 c-3 -3 -12 -4 -19
-1 -8 3 -5 6 6 6 11 1 17 -2 13 -5z m-1196 -65 c-11 -30 -20 -49 -20 -43 -1
15 30 106 35 101 2 -2 -5 -28 -15 -58z m342 54 c-7 -2 -19 -2 -25 0 -7 3 -2 5
12 5 14 0 19 -2 13 -5z m814 1 c-3 -3 -12 -4 -19 -1 -8 3 -5 6 6 6 11 1 17 -2
13 -5z m-764 -11 c-7 -2 -19 -2 -25 0 -7 3 -2 5 12 5 14 0 19 -2 13 -5z m60
-10 c-7 -2 -19 -2 -25 0 -7 3 -2 5 12 5 14 0 19 -2 13 -5z m610 0 c-7 -2 -19
-2 -25 0 -7 3 -2 5 12 5 14 0 19 -2 13 -5z m-535 -10 c-10 -2 -26 -2 -35 0
-10 3 -2 5 17 5 19 0 27 -2 18 -5z m480 0 c-10 -2 -26 -2 -35 0 -10 3 -2 5 17
5 19 0 27 -2 18 -5z m-370 -10 c-16 -2 -40 -2 -55 0 -16 2 -3 4 27 4 30 0 43
-2 28 -4z m285 0 c-13 -2 -33 -2 -45 0 -13 2 -3 4 22 4 25 0 35 -2 23 -4z
m-150 -10 c-7 -2 -19 -2 -25 0 -7 3 -2 5 12 5 14 0 19 -2 13 -5z m-826 -175
c-3 -8 -6 -5 -6 6 -1 11 2 17 5 13 3 -3 4 -12 1 -19z m-10 -40 c-3 -8 -6 -5
-6 6 -1 11 2 17 5 13 3 -3 4 -12 1 -19z m-20 -70 c-3 -8 -6 -5 -6 6 -1 11 2
17 5 13 3 -3 4 -12 1 -19z m-10 -50 c-3 -7 -5 -2 -5 12 0 14 2 19 5 13 2 -7 2
-19 0 -25z m-20 -80 c-3 -7 -5 -2 -5 12 0 14 2 19 5 13 2 -7 2 -19 0 -25z
m-10 -40 c-3 -8 -6 -5 -6 6 -1 11 2 17 5 13 3 -3 4 -12 1 -19z m-10 -50 c-3
-7 -5 -2 -5 12 0 14 2 19 5 13 2 -7 2 -19 0 -25z m-10 -40 c-3 -8 -6 -5 -6 6
-1 11 2 17 5 13 3 -3 4 -12 1 -19z m-10 -60 c-3 -7 -5 -2 -5 12 0 14 2 19 5
13 2 -7 2 -19 0 -25z m-10 -50 c-3 -7 -5 -2 -5 12 0 14 2 19 5 13 2 -7 2 -19
0 -25z m-10 -50 c-3 -7 -5 -2 -5 12 0 14 2 19 5 13 2 -7 2 -19 0 -25z m-10
-60 c-3 -7 -5 -2 -5 12 0 14 2 19 5 13 2 -7 2 -19 0 -25z m-10 -65 c-3 -10 -5
-4 -5 12 0 17 2 24 5 18 2 -7 2 -21 0 -30z m-10 -70 c-3 -10 -5 -4 -5 12 0 17
2 24 5 18 2 -7 2 -21 0 -30z m-10 -85 c-2 -13 -4 -5 -4 17 -1 22 1 32 4 23 2
-10 2 -28 0 -40z m-10 -110 c-2 -13 -4 -3 -4 22 0 25 2 35 4 23 2 -13 2 -33 0
-45z m-10 -365 c-1 -59 -3 -13 -3 102 0 116 2 164 3 108 2 -56 2 -151 0 -210z
m10 -210 c-2 -16 -4 -5 -4 22 0 28 2 40 4 28 2 -13 2 -35 0 -50z m10 -100 c-3
-10 -5 -2 -5 17 0 19 2 27 5 18 2 -10 2 -26 0 -35z m10 -70 c-3 -10 -5 -4 -5
12 0 17 2 24 5 18 2 -7 2 -21 0 -30z m10 -65 c-3 -7 -5 -2 -5 12 0 14 2 19 5
13 2 -7 2 -19 0 -25z m10 -50 c-3 -7 -5 -2 -5 12 0 14 2 19 5 13 2 -7 2 -19 0
-25z m10 -50 c-3 -8 -6 -5 -6 6 -1 11 2 17 5 13 3 -3 4 -12 1 -19z m10 -40
c-3 -8 -6 -5 -6 6 -1 11 2 17 5 13 3 -3 4 -12 1 -19z m10 -40 c-3 -8 -6 -5 -6
6 -1 11 2 17 5 13 3 -3 4 -12 1 -19z m10 -40 c-3 -8 -6 -5 -6 6 -1 11 2 17 5
13 3 -3 4 -12 1 -19z m22 -68 c0 -9 -4 -8 -9 5 -5 11 -9 27 -9 35 0 9 4 8 9
-5 5 -11 9 -27 9 -35z m51 -145 c0 -5 -5 -3 -10 5 -5 8 -10 20 -10 25 0 6 5 3
10 -5 5 -8 10 -19 10 -25z m20 -50 c0 -5 -5 -3 -10 5 -5 8 -10 20 -10 25 0 6
5 3 10 -5 5 -8 10 -19 10 -25z m29 -70 c0 -5 -6 1 -14 15 -8 14 -14 30 -14 35
0 6 6 -1 14 -15 8 -14 14 -29 14 -35z m40 -82 c17 -35 29 -63 26 -63 -5 0 -65
116 -65 126 0 12 6 2 39 -63z m71 -133 c11 -22 18 -40 15 -40 -2 0 -14 18 -25
40 -11 22 -18 40 -15 40 2 0 14 -18 25 -40z m64 -107 c20 -32 27 -46 14 -31
-26 30 -62 88 -55 88 2 0 21 -26 41 -57z m66 -93 c12 -16 19 -30 16 -30 -2 0
-14 14 -26 30 -12 17 -19 30 -16 30 2 0 14 -13 26 -30z m181 -220 c48 -53 132
-135 188 -184 55 -48 101 -90 101 -93 0 -7 -107 85 -192 166 -63 58 -215 229
-247 276 -8 11 4 0 25 -25 22 -25 78 -88 125 -140z m409 -367 c0 -7 -89 59
-103 76 -7 8 14 -5 46 -28 31 -24 57 -45 57 -48z m100 -69 c0 -3 -20 9 -45 26
-25 17 -45 33 -45 36 0 3 20 -9 45 -26 25 -17 45 -33 45 -36z m990 2 c0 -2 -8
-10 -17 -17 -16 -13 -17 -12 -4 4 13 16 21 21 21 13z m-900 -63 c0 -7 -39 17
-46 28 -3 6 5 3 20 -6 14 -10 26 -19 26 -22z m860 32 c0 -2 -10 -9 -22 -15
-22 -11 -22 -10 -4 4 21 17 26 19 26 11z m-50 -30 c0 -2 -13 -11 -30 -20 -38
-19 -40 -11 -2 9 31 17 32 18 32 11z m-745 -40 l20 -16 -20 10 c-11 5 -29 17
-40 26 l-20 16 20 -10 c11 -5 29 -17 40 -26z m675 0 c0 -2 -22 -16 -50 -30
-27 -14 -50 -23 -50 -20 0 2 21 16 48 29 53 28 52 28 52 21z m-610 -41 c0 -2
-9 0 -20 6 -11 6 -20 13 -20 16 0 2 9 0 20 -6 11 -6 20 -13 20 -16z m70 -40
c0 -2 -13 2 -30 11 -16 9 -30 18 -30 21 0 2 14 -2 30 -11 17 -9 30 -18 30 -21z
m410 11 c0 -6 -97 -55 -107 -55 -4 1 17 14 47 30 61 32 60 32 60 25z m-254
-93 c-5 -4 -146 66 -146 73 0 3 34 -12 75 -32 41 -20 73 -39 71 -41z m94 13
c-14 -8 -29 -14 -35 -14 -5 0 1 6 15 14 14 8 30 14 35 14 6 0 -1 -6 -15 -14z
m-53 -21 c-3 -3 -12 -4 -19 -1 -8 3 -5 6 6 6 11 1 17 -2 13 -5z"/>
    <path d="M3736 6436 c-27 -44 -103 -159 -168 -253 -115 -167 -118 -174 -103
-196 19 -29 56 -47 95 -47 25 0 43 15 110 93 110 126 180 228 180 264 0 29
-42 181 -57 206 -6 11 -22 -8 -57 -67z"/>
  </g>
</svg>
