<svg xmlns="http://www.w3.org/2000/svg" xmlns:xlink="http://www.w3.org/1999/xlink" width="398" zoomAndPan="magnify" viewBox="0 0 298.5 166.499995" height="222" preserveAspectRatio="xMidYMid meet" version="1.2"><defs><clipPath id="4f7e9ace55"><path d="M 109.269531 0 L 188.359375 0 L 188.359375 79.09375 L 109.269531 79.09375 Z M 109.269531 0 "/></clipPath><clipPath id="7f52baff3c"><path d="M 128.675781 0 L 168.953125 0 C 179.671875 0 188.359375 8.6875 188.359375 19.40625 L 188.359375 59.6875 C 188.359375 70.40625 179.671875 79.09375 168.953125 79.09375 L 128.675781 79.09375 C 117.957031 79.09375 109.269531 70.40625 109.269531 59.6875 L 109.269531 19.40625 C 109.269531 8.6875 117.957031 0 128.675781 0 Z M 128.675781 0 "/></clipPath><clipPath id="b7af5ebf6b"><path d="M 132.4375 18.984375 L 165.378906 18.984375 L 165.378906 47.769531 L 132.4375 47.769531 Z M 132.4375 18.984375 "/></clipPath><clipPath id="8941d1931f"><path d="M 148.882812 18.984375 L 165.332031 47.769531 L 132.4375 47.769531 Z M 148.882812 18.984375 "/></clipPath><clipPath id="d945491583"><path d="M 109.269531 86.769531 L 188.359375 86.769531 L 188.359375 165.863281 L 109.269531 165.863281 Z M 109.269531 86.769531 "/></clipPath><clipPath id="3bd1671ea6"><path d="M 128.675781 86.769531 L 168.953125 86.769531 C 179.671875 86.769531 188.359375 95.457031 188.359375 106.175781 L 188.359375 146.457031 C 188.359375 157.171875 179.671875 165.863281 168.953125 165.863281 L 128.675781 165.863281 C 117.957031 165.863281 109.269531 157.171875 109.269531 146.457031 L 109.269531 106.175781 C 109.269531 95.457031 117.957031 86.769531 128.675781 86.769531 Z M 128.675781 86.769531 "/></clipPath><clipPath id="c5f9a0df7d"><path d="M 132.378906 114.046875 L 165.324219 114.046875 L 165.324219 142.832031 L 132.378906 142.832031 Z M 132.378906 114.046875 "/></clipPath><clipPath id="1853ae666f"><path d="M 148.875 142.832031 L 132.429688 114.046875 L 165.324219 114.046875 Z M 148.875 142.832031 "/></clipPath><clipPath id="c4aa14935f"><path d="M 198.203125 86.769531 L 277.296875 86.769531 L 277.296875 165.863281 L 198.203125 165.863281 Z M 198.203125 86.769531 "/></clipPath><clipPath id="b615fdba82"><path d="M 217.609375 86.769531 L 257.886719 86.769531 C 268.605469 86.769531 277.296875 95.457031 277.296875 106.175781 L 277.296875 146.457031 C 277.296875 157.171875 268.605469 165.863281 257.886719 165.863281 L 217.609375 165.863281 C 206.890625 165.863281 198.203125 157.171875 198.203125 146.457031 L 198.203125 106.175781 C 198.203125 95.457031 206.890625 86.769531 217.609375 86.769531 Z M 217.609375 86.769531 "/></clipPath><clipPath id="945e24761d"><path d="M 229.75 109.9375 L 258.535156 109.9375 L 258.535156 142.882812 L 229.75 142.882812 Z M 229.75 109.9375 "/></clipPath><clipPath id="d66a9b43a6"><path d="M 258.535156 126.386719 L 229.75 142.835938 L 229.75 109.9375 Z M 258.535156 126.386719 "/></clipPath><clipPath id="81054044db"><path d="M 20.566406 86.769531 L 99.660156 86.769531 L 99.660156 165.863281 L 20.566406 165.863281 Z M 20.566406 86.769531 "/></clipPath><clipPath id="f228251757"><path d="M 39.972656 86.769531 L 80.253906 86.769531 C 90.972656 86.769531 99.660156 95.457031 99.660156 106.175781 L 99.660156 146.457031 C 99.660156 157.171875 90.972656 165.863281 80.253906 165.863281 L 39.972656 165.863281 C 29.253906 165.863281 20.566406 157.171875 20.566406 146.457031 L 20.566406 106.175781 C 20.566406 95.457031 29.253906 86.769531 39.972656 86.769531 Z M 39.972656 86.769531 "/></clipPath><clipPath id="99dbda6316"><path d="M 39.261719 109.882812 L 68.046875 109.882812 L 68.046875 142.828125 L 39.261719 142.828125 Z M 39.261719 109.882812 "/></clipPath><clipPath id="4599fecd8b"><path d="M 39.261719 126.378906 L 68.046875 109.929688 L 68.046875 142.828125 Z M 39.261719 126.378906 "/></clipPath></defs><g id="28685b9cdb"><g clip-rule="nonzero" clip-path="url(#4f7e9ace55)"><g clip-rule="nonzero" clip-path="url(#7f52baff3c)"><path style="fill:none;stroke-width:29.534523;stroke-linecap:butt;stroke-linejoin:miter;stroke:#ffffff;stroke-opacity:1;stroke-miterlimit:4;" d="M 34.901429 -0.000000000000209811 L 107.332576 -0.000000000000209811 C 126.608211 -0.000000000000209811 142.231028 15.622817 142.231028 34.898452 L 142.231028 107.336624 C 142.231028 126.612258 126.608211 142.235076 107.332576 142.235076 L 34.901429 142.235076 C 15.625794 142.235076 0.00297686 126.612258 0.00297686 107.336624 L 0.00297686 34.898452 C 0.00297686 15.622817 15.625794 -0.000000000000209811 34.901429 -0.000000000000209811 Z M 34.901429 -0.000000000000209811 " transform="matrix(0.556078,0,0,0.556078,109.267876,0.000000000000116671)"/></g></g><g clip-rule="nonzero" clip-path="url(#b7af5ebf6b)"><g clip-rule="nonzero" clip-path="url(#8941d1931f)"><path style=" stroke:none;fill-rule:nonzero;fill:#ffffff;fill-opacity:1;" d="M 132.4375 18.984375 L 165.378906 18.984375 L 165.378906 47.769531 L 132.4375 47.769531 Z M 132.4375 18.984375 "/></g></g><g clip-rule="nonzero" clip-path="url(#d945491583)"><g clip-rule="nonzero" clip-path="url(#3bd1671ea6)"><path style="fill:none;stroke-width:29.534523;stroke-linecap:butt;stroke-linejoin:miter;stroke:#ffffff;stroke-opacity:1;stroke-miterlimit:4;" d="M 34.901429 0.000389159 L 107.332576 0.000389159 C 126.608211 0.000389159 142.231028 15.623207 142.231028 34.898841 L 142.231028 107.337013 C 142.231028 126.605623 126.608211 142.235465 107.332576 142.235465 L 34.901429 142.235465 C 15.625794 142.235465 0.00297686 126.605623 0.00297686 107.337013 L 0.00297686 34.898841 C 0.00297686 15.623207 15.625794 0.000389159 34.901429 0.000389159 Z M 34.901429 0.000389159 " transform="matrix(0.556078,0,0,0.556078,109.267876,86.769315)"/></g></g><g clip-rule="nonzero" clip-path="url(#c5f9a0df7d)"><g clip-rule="nonzero" clip-path="url(#1853ae666f)"><path style=" stroke:none;fill-rule:nonzero;fill:#ffffff;fill-opacity:1;" d="M 165.324219 142.832031 L 132.378906 142.832031 L 132.378906 114.046875 L 165.324219 114.046875 Z M 165.324219 142.832031 "/></g></g><g clip-rule="nonzero" clip-path="url(#c4aa14935f)"><g clip-rule="nonzero" clip-path="url(#b615fdba82)"><path style="fill:none;stroke-width:29.534523;stroke-linecap:butt;stroke-linejoin:miter;stroke:#ffffff;stroke-opacity:1;stroke-miterlimit:4;" d="M 34.899493 0.000389159 L 107.33064 0.000389159 C 126.606274 0.000389159 142.236116 15.623207 142.236116 34.898841 L 142.236116 107.337013 C 142.236116 126.605623 126.606274 142.235465 107.33064 142.235465 L 34.899493 142.235465 C 15.623858 142.235465 0.00104049 126.605623 0.00104049 107.337013 L 0.00104049 34.898841 C 0.00104049 15.623207 15.623858 0.000389159 34.899493 0.000389159 Z M 34.899493 0.000389159 " transform="matrix(0.556078,0,0,0.556078,198.202546,86.769315)"/></g></g><g clip-rule="nonzero" clip-path="url(#945e24761d)"><g clip-rule="nonzero" clip-path="url(#d66a9b43a6)"><path style=" stroke:none;fill-rule:nonzero;fill:#ffffff;fill-opacity:1;" d="M 258.535156 109.9375 L 258.535156 142.882812 L 229.75 142.882812 L 229.75 109.9375 Z M 258.535156 109.9375 "/></g></g><g clip-rule="nonzero" clip-path="url(#81054044db)"><g clip-rule="nonzero" clip-path="url(#f228251757)"><path style="fill:none;stroke-width:29.534523;stroke-linecap:butt;stroke-linejoin:miter;stroke:#ffffff;stroke-opacity:1;stroke-miterlimit:4;" d="M 34.897771 0.000389159 L 107.335942 0.000389159 C 126.611577 0.000389159 142.234394 15.623207 142.234394 34.898841 L 142.234394 107.337013 C 142.234394 126.605623 126.611577 142.235465 107.335942 142.235465 L 34.897771 142.235465 C 15.622136 142.235465 -0.000681443 126.605623 -0.000681443 107.337013 L -0.000681443 34.898841 C -0.000681443 15.623207 15.622136 0.000389159 34.897771 0.000389159 Z M 34.897771 0.000389159 " transform="matrix(0.556078,0,0,0.556078,20.566785,86.769315)"/></g></g><g clip-rule="nonzero" clip-path="url(#99dbda6316)"><g clip-rule="nonzero" clip-path="url(#4599fecd8b)"><path style=" stroke:none;fill-rule:nonzero;fill:#ffffff;fill-opacity:1;" d="M 39.261719 142.828125 L 39.261719 109.882812 L 68.046875 109.882812 L 68.046875 142.828125 Z M 39.261719 142.828125 "/></g></g></g></svg>